<?xml version="1.0" encoding="iso-8859-1"?>
<!-- Uploaded to: SVG Repo, www.svgrepo.com, Generator: SVG Repo Mixer Tools -->
<svg height="800px" width="800px" version="1.1" id="Layer_1" xmlns="http://www.w3.org/2000/svg" xmlns:xlink="http://www.w3.org/1999/xlink" 
	 viewBox="0 0 512 512" xml:space="preserve">
<path style="fill:#D5D2BD;" d="M324.763,394.031H187.237c-30.613,17.882-53.631,47.34-63.07,82.367
	C162.882,499.023,207.923,512,256,512s93.118-12.977,131.833-35.602C378.394,441.37,355.376,411.913,324.763,394.031z"/>
<path style="fill:#E7E4CD;" d="M181.65,397.478c-27.819,18.097-48.627,46.056-57.483,78.92C162.882,499.023,207.923,512,256,512
	v-56.311c0-10.809-7.597-20.163-18.194-22.287C214.86,428.805,194.998,415.679,181.65,397.478z"/>
<path style="fill:#C1BDAB;" d="M328.818,440.013v61.71c9.439-2.731,18.658-5.981,27.626-9.713
	C352.472,471.951,342.647,454,328.818,440.013z"/>
<path style="fill:#D5D2BD;" d="M155.557,492.008c8.968,3.733,18.186,6.983,27.626,9.713v-61.708
	C169.354,454,159.528,471.951,155.557,492.008z"/>
<path style="fill:#BD7155;" d="M262.088,438.456l7.976,15.718l17.439,2.464c5.658,0.8,7.888,7.782,3.741,11.713l-12.488,11.84
	l2.99,16.954c0.979,5.551-4.812,9.83-9.83,7.264L256,496.273l-15.914,8.137c-5.019,2.567-10.81-1.712-9.83-7.264l2.989-16.954
	l-12.488-11.84c-4.147-3.931-1.917-10.914,3.741-11.713l17.439-2.464l7.976-15.718C252.441,433.473,259.559,433.473,262.088,438.456
	z"/>
<path style="fill:#CE9276;" d="M249.333,439.598l-7.397,14.577l-17.439,2.464c-5.658,0.8-7.888,7.782-3.741,11.713l12.488,11.84
	l-2.99,16.954c-0.978,5.551,4.812,9.83,9.83,7.264L256,496.273v-40.583C256,449.477,253.481,443.753,249.333,439.598z"/>
<path style="fill:#D5A150;" d="M409.099,219.729l0.077-15.065C393.846,146.67,351.08,93.66,297.02,75.193
	c-13.089-4.471-26.837-6.927-41.02-6.927c-72.767,0-134.134,64.362-153.176,136.397l0.083,16.258
	c-1.811,5.912-2.823,12.163-2.875,18.637c-0.065,8.119,5.367,47.583,5.367,47.583l66.981,98.763
	C196.684,400.926,225.328,409.6,256,409.6c67.289,0,124.823-41.728,148.161-100.715c3.061-7.737,4.564-16.003,4.606-24.322
	l0.101-19.883c2.355-8.053,3.546-16.495,3.478-25.123C412.292,232.647,411.15,225.987,409.099,219.729z"/>
<path style="fill:#E1B872;" d="M335.932,344.428c6.486-6.654,1.399-17.705-7.889-17.446c-0.815,0.023-1.63,0.034-2.449,0.034
	c-15.011,0-29.546-3.912-42.336-10.941c-16.843-9.257-37.297-9.258-54.139,0c-12.79,7.03-27.324,10.941-42.333,10.941
	c-23.274,0-45.14-9.12-61.569-25.681c-10.697-10.783-18.198-23.857-22.093-38.088l0.109,21.303
	c0.044,8.598,1.704,17.116,4.908,25.094c12.759,31.764,35.454,58.466,64.239,76.258c16.863,4.306,33.643,6.631,49.485,6.631
	C266.586,392.533,307.001,374.105,335.932,344.428z"/>
<path style="fill:#474641;" d="M256.104,316.301c-6.838,0.052-13.287-2.562-18.159-7.36c-3.358-3.308-3.399-8.71-0.091-12.068
	c3.306-3.356,8.71-3.397,12.067-0.091c1.624,1.6,3.773,2.471,6.052,2.453c2.279-0.018,4.416-0.922,6.014-2.545
	c3.307-3.358,8.711-3.4,12.067-0.092c3.359,3.308,3.4,8.71,0.093,12.068C269.35,313.537,262.94,316.249,256.104,316.301z"/>
<g>
	<path style="fill:#A57D48;" d="M201.308,203.852h-35.003c-20.108,0-36.409,16.301-36.409,36.409l0,0
		c0,31.419,25.47,56.889,56.889,56.889l0,0c22.277,0,42.604-12.701,52.371-32.724l0,0
		C252.803,236.452,232.433,203.852,201.308,203.852z"/>
	<path style="fill:#A57D48;" d="M311.072,203.852h35.003c20.108,0,36.409,16.301,36.409,36.409l0,0
		c0,31.419-25.47,56.889-56.889,56.889l0,0c-22.277,0-42.604-12.701-52.371-32.724l0,0
		C259.577,236.452,279.947,203.852,311.072,203.852z"/>
</g>
<g>
	<circle style="fill:#474641;" cx="199.111" cy="250.311" r="17.067"/>
	<circle style="fill:#474641;" cx="312.889" cy="250.311" r="17.067"/>
</g>
<path style="fill:#6D5B4D;" d="M345.954,191.052h-33.948c-18.82,0-36.684,9.166-46.947,24.942c-0.123,0.189-0.245,0.379-0.365,0.569
	c-3.974,6.271-13.033,6.271-17.008,0c-0.121-0.19-0.242-0.38-0.365-0.569c-10.263-15.775-28.127-24.942-46.947-24.942h-33.949
	c-26.974,0-49.111,21.669-49.327,48.642c-0.309,38.686,31.072,70.255,69.687,70.255c26.976,0,52.049-15.667,63.876-39.911
	c0.034-0.069,0.068-0.14,0.101-0.209c2.212-4.584,8.643-4.584,10.854,0c0.034,0.069,0.067,0.14,0.101,0.209
	c11.827,24.245,36.899,39.911,63.876,39.911c38.615,0,69.996-31.57,69.687-70.256C395.065,212.721,372.928,191.052,345.954,191.052z
	 M227.652,258.815c-7.566,15.512-23.608,25.535-40.867,25.535c-24.311,0-44.089-19.778-44.089-44.089
	c0-13.017,10.592-23.609,23.609-23.609h35.003c10.174,0,19.467,5.151,24.858,13.78C231.558,239.06,232.112,249.672,227.652,258.815z
	 M325.594,284.35c-17.259,0-33.3-10.024-40.867-25.535c-4.46-9.143-3.906-19.754,1.486-28.382
	c5.391-8.629,14.684-13.78,24.858-13.78h35.003c13.017,0,23.609,10.592,23.609,23.609
	C369.683,264.572,349.904,284.35,325.594,284.35z"/>
<path style="fill:#BD7155;" d="M256,0C149.176,0,62.578,86.814,62.578,193.904v84.852c0,9.425,7.641,17.067,17.067,17.067l0,0
	c15.221,0,28.125-10.964,30.85-25.939C123.062,200.809,124.018,148.28,256,148.28c129.707,0,132.938,52.529,145.506,121.603
	c2.725,14.975,15.629,25.939,30.85,25.939l0,0c9.425,0,17.067-7.641,17.067-17.067v-84.852C449.422,86.814,362.824,0,256,0z"/>
<path style="fill:#E7E4CD;" d="M187.733,155.188c17.665-4.483,39.942-6.909,68.267-6.909c28.311,0,50.595,2.503,68.267,7.135V12.437
	C303.037,4.407,280.033,0,256,0s-47.037,4.407-68.267,12.437V155.188z"/>
<path style="fill:#67A0C0;" d="M262.088,46.973l7.976,15.718l17.439,2.464c5.658,0.8,7.888,7.782,3.741,11.713l-12.488,11.84
	l2.99,16.954c0.979,5.551-4.812,9.83-9.83,7.264L256,104.789l-15.914,8.137c-5.019,2.567-10.81-1.712-9.83-7.264l2.989-16.954
	l-12.488-11.84c-4.147-3.931-1.917-10.914,3.741-11.713l17.439-2.464l7.976-15.718C252.441,41.99,259.559,41.99,262.088,46.973z"/>
<path style="opacity:0.2;fill:#493023;enable-background:new    ;" d="M256,0L256,0v50.712c0,33.468-24.245,62.137-57.3,67.377
	c-36.295,5.753-62.31,17.951-81.359,37.589c-26.257,27.068-32.406,62.302-38.353,96.375c-0.155,0.89-0.311,1.783-0.468,2.679
	c-0.703,4.018-4.194,6.958-8.272,6.958h-7.671v17.067c0,9.425,7.641,17.067,17.067,17.067l0,0c15.153,0,28.102-10.857,30.818-25.764
	C123.06,200.897,123.906,148.28,256,148.28c129.826,0,132.945,52.626,145.541,121.795c2.714,14.901,15.667,25.748,30.814,25.748l0,0
	c9.425,0,17.067-7.641,17.067-17.067v-17.067v-67.785C449.422,86.814,362.824,0,256,0z"/>
<path style="opacity:0.3;fill:#E7E4CD;enable-background:new    ;" d="M75.977,122.848c0.842,0.014,1.684,0.032,2.529,0.032
	c72.214,0,132.329-51.754,145.307-120.193C156.195,14.044,100.462,60.555,75.977,122.848z"/>
</svg>